<svg fill="none" xmlns="http://www.w3.org/2000/svg" viewBox="0 0 102 48"><g clip-path="url(#clip0)"><path d="M3.798 11.1H0l.689-3h11.074l-.666 3H7.299L5.003 21.458h-3.5L3.798 11.1zM18.602 19.432h-5.6l-1.16 2.026H7.885L15.963 8.1h4.383l2.135 13.36h-3.615l-.264-2.027zm-4.04-2.898h3.776l-.666-5.525-3.11 5.525zM37.342 12.56l-5.417 8.898h-1.537l-1.423-8.898-1.986 8.898h-3.488L26.474 8.1h4.728l1.16 7.45 4.51-7.45h4.957l-2.984 13.36h-3.488l1.985-8.9zM50.562 19.432h-5.6l-1.16 2.026h-3.958L47.922 8.1h4.384l2.135 13.36h-3.615l-.264-2.027zm-4.04-2.898h3.776l-.666-5.525-3.11 5.525zM60.821 12.967l-1.893 8.491h-3.489L58.423 8.1h3.592l3.672 8.118 1.802-8.118H71l-2.984 13.36h-3.374l-3.82-8.492z" fill="#F2CF60"/><path d="M13.807 28.253c-.999-.729-2.487-1.087-4.44-1.087-5.347 0-8.027 2.05-8.027 6.15 0 .963.284 1.77.84 2.42a5.023 5.023 0 002.055 1.422c.806.302 1.613.571 2.407.795.807.224 1.488.516 2.056.863.567.347.84.784.84 1.322 0 1.008-.829 1.523-2.475 1.523-1.647 0-2.476-.56-2.476-1.691 0-.135.012-.28.046-.437l.045-.291H.228l-.08.392a8.066 8.066 0 00-.148 1.5c0 1.21.352 2.163 1.067 2.846.965.918 2.748 1.378 5.371 1.378s4.553-.504 5.814-1.513c1.26-1.008 1.884-2.542 1.884-4.626 0-1.03-.283-1.87-.84-2.51a4.715 4.715 0 00-2.066-1.388 23.283 23.283 0 00-2.419-.695c-.806-.19-1.487-.448-2.055-.773-.568-.324-.84-.773-.84-1.321 0-1.11.885-1.67 2.657-1.67 1.408 0 2.112.527 2.112 1.591 0 .572-.182 1.042-.545 1.423h4.394l.204-.291c.136-.18.261-.482.386-.919.125-.437.182-.885.182-1.355 0-1.322-.5-2.33-1.499-3.058zM30.884 31.165l.704-3.831H19.11l-3.157 17.654h12.479l.692-3.82H21.12l.5-2.867h6.608l.704-3.832h-6.62l.58-3.304h7.993zM34.438 27.334l-3.156 17.654h4.508l3.122-17.654h-4.474zM53.242 28.253c-1-.729-2.487-1.087-4.44-1.087-5.348 0-8.028 2.05-8.028 6.15 0 .963.284 1.77.84 2.42a5.024 5.024 0 002.056 1.422c.806.302 1.612.571 2.407.795.806.224 1.487.516 2.055.863.568.347.84.784.84 1.322 0 1.008-.829 1.523-2.475 1.523-1.646 0-2.475-.56-2.475-1.691 0-.135.011-.28.045-.437l.045-.291H39.64l-.08.392a8.065 8.065 0 00-.147 1.5c0 1.21.352 2.163 1.067 2.846.965.918 2.748 1.378 5.37 1.378 2.624 0 4.554-.504 5.814-1.513 1.26-1.008 1.885-2.542 1.885-4.626 0-1.03-.284-1.87-.84-2.51a4.715 4.715 0 00-2.067-1.388 23.277 23.277 0 00-2.418-.695c-.806-.19-1.488-.448-2.055-.773-.568-.324-.84-.773-.84-1.321 0-1.11.885-1.67 2.656-1.67 1.408 0 2.112.527 2.112 1.591 0 .572-.181 1.042-.545 1.423h4.395l.204-.291c.136-.18.261-.482.386-.919.125-.437.182-.885.182-1.355.034-1.322-.477-2.33-1.476-3.058zM102.021 27.39h-4.735l-6.21 7.449 1.18-7.45h-4.44l-3.11 17.666h4.439l1.18-6.419h1.045l2.953 6.419h4.598l-3.997-8.76 7.097-8.905zM79.89 27.368l-3.156 17.654h4.497l3.134-17.654H79.89zM71.931 27.278l-5.904 7.841-2.725-7.84h-4.77l-3.065 17.698 4.428.112 1.59-9.97 3.293 7.505 5.677-7.28-1.93 9.745h4.882l3.066-17.81h-4.542z" fill="#fff"/><path d="M91.375 2h3.11v2.448l-.74-.704a1.382 1.382 0 00-1.885 0l-.485.462V2z" fill="#F2CF60"/><path d="M92.174 4.641a.92.92 0 011.257 0l2.515 2.393a.818.818 0 010 1.197l-2.515 2.393a.92.92 0 01-1.257 0L89.66 8.231a.818.818 0 010-1.197l2.514-2.393zM96.574 8.83a.92.92 0 011.257 0l2.514 2.393a.816.816 0 010 1.196l-2.514 2.394a.92.92 0 01-1.257 0l-2.514-2.394a.818.818 0 010-1.196l2.514-2.394zM89.032 8.83a.92.92 0 00-1.257 0l-2.515 2.393a.818.818 0 000 1.196l2.514 2.394c.348.33.91.33 1.258 0l2.514-2.394a.818.818 0 000-1.196l-2.514-2.394zM92.174 13.018a.92.92 0 011.257 0l2.515 2.393a.818.818 0 010 1.197L93.43 19a.92.92 0 01-1.257 0l-2.514-2.393a.818.818 0 010-1.197l2.514-2.393z" fill="#fff"/><path d="M94.078 24l-1.256-3.73c.335-.005.668-.128.924-.372l2.221-2.114 1.81 5.373-2.336-1.05L94.078 24zM89.406 17.562l-1.315 3.903 2.336-1.05 1.363 1.893.698-2.073a1.346 1.346 0 01-.628-.337l-2.454-2.336z" fill="#F2CF60"/><g clip-path="url(#clip1)"><path d="M78.383 9h2.139v1.67l-.51-.481a.956.956 0 00-1.296 0l-.333.315V9z" fill="#F2CF60"/><path d="M78.932 10.8a.637.637 0 01.865 0l1.728 1.632a.554.554 0 010 .816l-1.728 1.632a.637.637 0 01-.865 0l-1.728-1.632a.554.554 0 010-.816l1.728-1.631zM81.957 13.656a.637.637 0 01.864 0l1.729 1.632a.554.554 0 010 .816l-1.729 1.632a.637.637 0 01-.864 0l-1.728-1.632a.554.554 0 010-.816l1.728-1.632zM76.772 13.656a.637.637 0 00-.865 0l-1.728 1.632a.554.554 0 000 .816l1.728 1.632a.637.637 0 00.865 0l1.728-1.632a.554.554 0 000-.816l-1.728-1.632zM78.932 16.512a.637.637 0 01.865 0l1.728 1.632a.554.554 0 010 .816l-1.728 1.631a.637.637 0 01-.865 0l-1.728-1.631a.554.554 0 010-.816l1.728-1.632z" fill="#fff"/><path d="M80.241 24l-.864-2.543a.942.942 0 00.636-.254l1.527-1.441 1.244 3.663-1.606-.716L80.241 24zM77.029 19.61l-.904 2.661 1.606-.716.937 1.291.48-1.413a.928.928 0 01-.432-.23L77.03 19.61z" fill="#F2CF60"/></g></g><defs><clipPath id="clip0"><path fill="#fff" d="M0 0h102v48H0z"/></clipPath><clipPath id="clip1"><path fill="#fff" transform="translate(74 9)" d="M0 0h11v15H0z"/></clipPath></defs></svg>