<svg fill="none" xmlns="http://www.w3.org/2000/svg" viewBox="0 0 284 145"><g clip-path="url(#clip0)"><path d="M122.416 75.795a94.584 94.584 0 01-15.941-1.222c-3.35-.538-6.319 2.109-5.982 5.352l5.645 33.57 16.278-2.516V75.795z" fill="#3C8F7C"/><path d="M146.783 108.143l-35.994-.568-3.13-27.635c-.307-3.244 3.584-5.193 5.47-5.353 9.214-.814 18.429 1.63 27.555.03l.834-.146c2.881-.51 5.499 1.847 5.484 4.916l-.219 28.756z" fill="#50BFA5"/><path d="M131.967 45.657c-.951-3.854-3.452-7.33-7.401-8.509-4.709-1.41-10.033-.203-12.958 3.753a6.319 6.319 0 00-1.272 4.116c.043 1.193.277 2.996-.673 3.942-1.565 1.556-3.715 2.152-5.163 3.869-6.04 7.141.219 16.29 7.971 18.443 6.143 1.702 13.104-.116 16.395-5.789 1.741-2.996 2.75-6.327 3.276-9.716.542-3.447.673-6.705-.175-10.109z" fill="#F47458"/><path d="M153.203 103.416s-.672-.539-.892-.728c-.248-.232-.936-.974-.936-.974s-2.281-2.706-2.062-2.865c.219-.146.863.101 1.068.218.204.116.438.232.643.349.205.116.454.073.615-.175.16-.233-.527-.873-.82-1.047-.892-.538-3.554-1.527-3.817-1.644-.322-.13-3.422-5.556-4.622-7.33-1.886-2.968-3.173-5.382-3.378-5.688l-4.563-15.185-5.909-.581s5.06 17.28 5.368 18.065c.146.378 4.27 5.73 4.27 5.73 2.618 3.07 4.944 5.76 5.368 6.284 0 0 .863 1.934 1.331 3.185.468 1.266 1.419 2.226 1.609 2.56.029.044.614 1.237 1.813 2.327 1.039.946.483-.436.483-.436s-1.609-2.094-1.419-2.196c.146-.073.951 1.12 2.092 2.167.292.276.585.538.848.785.702.64 1.302.379.673-.407-.22-.276-.6-.727-.922-1.003-.336-.306-.555-.699-.804-1.004-.497-.596-.863-1.033-.819-1.033.044-.014.029-.203.351.073.38.334 1.038 1.222 1.638 1.673a28.09 28.09 0 011.024.829s1.199.8 1.272.756c.337-.305-.351-1.134-.863-1.425-.234-.349-.965-.931-.965-.931s-1.214-1.513-1.009-1.688c.175-.145 3.788 2.91 4.11 2.575.263-.276-.776-1.236-.776-1.236z" fill="#F7A491"/><path d="M146.71 99.11s1.813.684 2.574-.247c0 0-.234.684-.965.815-.732.13-1.609-.567-1.609-.567z" fill="#F47458"/><path d="M130.343 76.813s5.807-1.673 6.64-2.43c0 0-2.149-12.13-6.362-14.384-.161-.088-.614-.291-.789-.335-3.174-1.004.511 17.149.511 17.149z" fill="#184655"/><path d="M125.02 59.039s-8.98.101-11.057 1.803c-2.077 1.687-6.962 12.378-6.962 12.378l7.02 2.807s2.136-3.723 2.37-3.52c.424.393 1.491 7.316 1.886 9.862.395 2.53-.848 9.672-.848 9.672s10.735 1.877 15.123-.654c0 0-.073-14.589.717-17.207.804-2.618 1.272-4.204.234-6.822-1.039-2.618-1.843-6.225-3.423-7.578-.57-.494-5.06-.741-5.06-.741z" fill="#355389"/><path d="M121.817 52.392s.468 4.363.19 6.05c-.278 1.688.073 7.215 3.408 7.476 3.334.262 1.477-5.614 1.287-7.301-.191-1.687-.234-8.16-.234-8.16l-4.651 1.934z" fill="#F7A491"/><path d="M126.468 52.93c.044-1.411-.029-2.473-.029-2.473l-4.637 1.934s.088.888.176 2.022c1.93.568 3.554-.232 4.49-1.483z" fill="#F47458"/><path d="M122.621 39.868s-1.93.553-3.1 2.546c-1.17 2.007-1.931 7.781 2.033 10.298 3.963 2.516 6.976-1.397 6.976-5.106.015-3.68-.775-8.596-5.909-7.738z" fill="#F7A491"/><path d="M129.422 46.428c-.322.902-.98 1.483-1.477 1.294-.483-.189-.615-1.076-.293-1.978.322-.902.98-1.483 1.477-1.294.483.189.615 1.076.293 1.978zM119.521 47.562c.292.946.043 1.906-.556 2.139-.6.232-1.331-.35-1.624-1.31-.292-.945-.043-1.905.556-2.138.6-.218 1.316.364 1.624 1.31z" fill="#F7A491"/><path d="M161.861 151.444l-11.349-35.17 2.267-.946 11.73 36.116h-2.648zM103.037 151.444l12.388-38.094 2.253.946-11.584 37.148h-3.057z" fill="#3C8F7C"/><path d="M111.228 106.907l32.176.538c2.779 0 5.265 1.687 5.265 4.771v1.643c0 3.098-2.252 5.6-5.046 5.6h-32.469c-2.778 0-5.045-2.502-5.045-5.6v-1.643c0-3.098 2.325-5.309 5.119-5.309z" fill="#3C8F7C"/><path d="M110.57 151.443l12.358-36.624 2.253.916-11.935 35.708h-2.676zM167.01 151.444l-11.745-35.941 2.253-.931 12.066 36.872h-2.574z" fill="#3C8F7C"/><path d="M120.573 106.616s14.114.64 18.853.654c4.914 0 18.326-1.629 18.326-1.629 3.305 0 7.4 3.491 7.4 6.589v1.644c0 3.098-2.676 5.6-5.982 5.6h-38.597c-3.305 0-5.981-2.502-5.981-5.6v-1.644c0-3.113 2.676-5.614 5.981-5.614z" fill="#50BFA5"/><path d="M143.741 115.619c1.594-2.327 5.894-7.375 5.046-10.88-.849-3.491-5.207-3.694-7.533-2.254-1.374.843-12.724 29.613-13.645 30.966-.264.378-2.106-.131-2.428.713-.834 2.167-.19 6.501-.263 7.767-.088 1.76-.176 5.527.277 5.832.454.306 1.39-1.745 1.858-3.679.483-1.935.643-4.742 1.638-5.804.98-1.062 11.861-18.007 15.05-22.661z" fill="#F48C7F"/><path d="M127.199 136.608c.424-1.237.585-2.429.395-3.128-.6.102-2.165 0-2.428.684-.834 2.167-.19 6.502-.263 7.767-.088 1.76-.176 5.527.278 5.833.453.305 1.389-1.746 1.857-3.68.175-.727.307-1.556.468-2.386-.351-1.367-.804-3.65-.307-5.09z" fill="#13375B"/><path d="M142.556 100.347c-.907-1.251-6.435-2.342-6.903-2.386-.79-.072-4.11-.48-7.357-.698-1.229.19-2.647.596-3.686 1.411-2.267 1.789-8.365 7.491-3.949 8.567.585.146 1.463.233 2.575.291l.19.015 7.985.334c-1.433 6.109-3.115 34.356-5.177 37.046-1.331 1.731-.995 3.942-.585 5.295h4.358a22.3 22.3 0 00.922-6.327c0-3.477 9.082-25.221 11.612-36.93.702-3.113.878-5.44.015-6.618z" fill="#F7A491"/><path d="M128.369 149.247c-.79-.072-1.594-2.778-2.018-4.509-.044.058-.074.117-.117.16-2.077 2.691-.103 6.531-.103 6.531h3.452s1.038-2.4 1.302-5.949c-.469 1.236-1.624 3.855-2.516 3.767z" fill="#355389"/><path d="M143.068 99.125s-3.364-1.906-6.713.32c-3.35 2.225-4.052 8.552-4.052 8.552s-13.441.495-14.933-1.207c-1.491-1.687-4.168-3.665-3.056-7.258 1.111-3.593 3.7-9.309 3.7-9.309l6.859 1.178h8.118s.848 3.142 1.93 4.175c1.434 1.382 6.333 1.76 8.147 3.549z" fill="#B75742"/><path d="M133.488 89.801v5.455a2.278 2.278 0 01-2.281 2.269h-1.96a2.278 2.278 0 01-2.282-2.27v-6.152h6.523v.698z" fill="#FAE0B2"/><path d="M126.087 95.678h1.083v-.916h-1.083a.915.915 0 01-.921-.917v-.916c0-.51.41-.916.921-.916h1.39v-.917h-1.39c-1.023 0-1.857.83-1.857 1.847v.917c0 .989.834 1.818 1.857 1.818z" fill="#FAE0B2"/><path d="M128.662 93.06c-.161.116-1.916.77-1.916.77s-1.419.16-1.858.146c0 0-.263.102.249.204.205.043.965.029.965.029s2.018-.466 2.311.116c.088.175-2.399.611-2.399.611s-1.784-.145-2.296-.16c-.951-.03-1.916-.553-5.353-2.138-.365-.19-13.528-7.985-13.66-8.916-.088-.626 1.506-6.56 2.837-10.298l6.011 2.4c-.98 2.05-2.661 6.094-2.544 6.458.043.145 5.557 4.509 8.541 6.865 1.097.873 1.857 1.455 1.857 1.455l2.823-.19s1.945-.043 2.384.96c.19.437-.848-.014-1.082-.014-.22 0-.439-.015-.629.102.541.247.819.305 1.404.32 1.302.043 1.93.073 2.106.261.19.219-.673.524-2.077.611-.57.03-1.111-.145-1.36-.087-.117.03-.102.102.015.19.204.145.731.32 1.331.29.541-.029 1.491-.334 2.106-.422.98-.102.365.335.234.437z" fill="#F8A492"/><path d="M280.856 108.143a.876.876 0 00-1.083.581.87.87 0 00.585 1.077.876.876 0 001.083-.582.846.846 0 00-.585-1.076z" fill="#FAE0B2"/><path d="M280.051 109.306c-.439-.407-.014-1.12.541-.945a.563.563 0 01.381.698c-.103.407-.615.538-.922.247z" fill="#F47458"/><path d="M280.3 103.619a.88.88 0 01-1.199-.306.869.869 0 01.307-1.192.88.88 0 011.199.305.861.861 0 01-.307 1.193z" fill="#FAE0B2"/><path d="M279.232 103.255a.555.555 0 01.205-.771.575.575 0 01.673.073c.044.044.073.073.102.131a.535.535 0 01.059.422c-.132.48-.79.567-1.039.145z" fill="#F47458"/><path d="M280.958 107.706a.873.873 0 01-.717-1.004.876.876 0 011.726.291.874.874 0 01-1.009.713z" fill="#FAE0B2"/><path d="M280.373 106.746c.073-.436.614-.625.951-.32.409.378.058 1.062-.483.96a.54.54 0 01-.468-.64z" fill="#F47458"/><path d="M278.808 111.255a.868.868 0 01.102-1.221.88.88 0 011.229.101.87.87 0 01-.102 1.222.855.855 0 01-1.229-.102z" fill="#FAE0B2"/><path d="M278.911 110.95a.57.57 0 01.058-.8.578.578 0 01.805.058.571.571 0 01-.059.8.576.576 0 01-.804-.058z" fill="#F47458"/><path d="M269.989 103.051a.884.884 0 001.228-.174.874.874 0 00-.175-1.222.885.885 0 00-1.229.175c-.292.392-.219.945.176 1.221z" fill="#FAE0B2"/><path d="M270.252 102.891a.57.57 0 01-.073-.741.58.58 0 01.848-.073.572.572 0 01.073.742.59.59 0 01-.848.072z" fill="#F47458"/><path d="M273.411 100.695a.871.871 0 001.053.64.867.867 0 10-.409-1.687.854.854 0 00-.644 1.047z" fill="#FAE0B2"/><path d="M273.894 101.074c-.322-.306-.19-.858.249-.96a.57.57 0 01.687.422c.132.538-.526.916-.936.538z" fill="#F47458"/><path d="M277.565 101.059a.856.856 0 00.395 1.164.861.861 0 001.17-.393.855.855 0 00-.395-1.163.894.894 0 00-1.17.392z" fill="#FAE0B2"/><path d="M278.077 101.059a.575.575 0 01.439.029.557.557 0 01-.073 1.033.574.574 0 01-.439-.029.557.557 0 01.073-1.033z" fill="#F47458"/><path d="M272.987 100.812a.876.876 0 01-.512 1.12.884.884 0 01-1.126-.509.877.877 0 01.512-1.12.866.866 0 011.126.509z" fill="#FAE0B2"/><path d="M271.729 101.044a.562.562 0 011.039.044.576.576 0 01-.337.727c-.453.16-.906-.32-.702-.771z" fill="#F47458"/><path d="M280.505 104.012a.875.875 0 00-.454 1.149c.19.436.702.64 1.156.451a.875.875 0 00.453-1.149c-.205-.451-.717-.655-1.155-.451z" fill="#FAE0B2"/><path d="M280.168 105.073a.577.577 0 01.293-.741.57.57 0 01.746.291.577.577 0 01-.293.741.589.589 0 01-.614-.101c-.015-.015-.088-.073-.132-.19z" fill="#F47458"/><path d="M277.155 100.899a.87.87 0 01-1.638-.582.87.87 0 011.112-.523c.453.145.687.64.526 1.105z" fill="#FAE0B2"/><path d="M275.766 100.579c.132-.378.629-.494.922-.218.16.16.219.393.146.596a.549.549 0 01-.717.335.552.552 0 01-.351-.713zM275.459 106.863l4.329 1.832.059-.145-4.52-1.905 4.9.276.014-.16-4.709-.262 4.505-1.367-.044-.16-4.695 1.425 3.934-2.923-.102-.131-3.773 2.807 2.559-3.927-.132-.087-2.676 4.087 1.126-4.742-.161-.044-1.082 4.553-.57-4.64-.161.015.599 4.843-2.208-4.349-.146.073 2.12 4.174-3.451-3.185-.117.116 7.707 7.171.117-.116-3.422-3.229z" fill="#F47458"/><path d="M275.035 106.028l-15.1 16.046.512.477 15.101-16.046-.513-.477z" fill="#F47458"/><path d="M282.45 86.674a1.483 1.483 0 00-1.419 1.542c.03.815.732 1.44 1.551 1.41a1.483 1.483 0 001.419-1.54 1.494 1.494 0 00-1.551-1.412z" fill="#FAE0B2"/><path d="M281.836 89.002c-.922-.407-.658-1.775.351-1.818a.94.94 0 01.994.916c.03.698-.716 1.178-1.345.902z" fill="#F47458"/><path d="M279.071 79.75a1.5 1.5 0 01-2.091.16 1.482 1.482 0 01-.161-2.08 1.502 1.502 0 012.092-.16c.614.524.687 1.455.16 2.08z" fill="#FAE0B2"/><path d="M277.155 79.75c-.394-.349-.453-.945-.102-1.338a.951.951 0 011.112-.247c.087.044.16.087.234.146.19.16.307.392.336.654.059.844-.936 1.338-1.58.786z" fill="#F47458"/><path d="M282.377 85.947a1.475 1.475 0 01-1.697-1.207c-.131-.8.41-1.556 1.229-1.687a1.473 1.473 0 011.696 1.207 1.497 1.497 0 01-1.228 1.687z" fill="#FAE0B2"/><path d="M280.9 84.725a.952.952 0 011.331-1.018c.877.393.687 1.658-.234 1.804a.955.955 0 01-1.097-.785z" fill="#F47458"/><path d="M280.9 92.812a1.468 1.468 0 01-.512-2.021 1.485 1.485 0 012.033-.51c.702.422.936 1.324.512 2.022a1.512 1.512 0 01-2.033.51z" fill="#FAE0B2"/><path d="M280.9 92.245a.957.957 0 11.98-1.644.961.961 0 01.336 1.31.989.989 0 01-1.316.334z" fill="#F47458"/><path d="M262.252 84.507a1.487 1.487 0 001.858-.96c.248-.771-.191-1.6-.966-1.847a1.486 1.486 0 00-1.857.96 1.451 1.451 0 00.965 1.847z" fill="#FAE0B2"/><path d="M262.574 84.1c-.439-.204-.673-.699-.527-1.15a.96.96 0 011.302-.581c.439.203.673.698.527 1.149a.96.96 0 01-1.302.582z" fill="#F47458"/><path d="M266.42 78.849a1.493 1.493 0 002.048.45 1.474 1.474 0 00.453-2.036 1.492 1.492 0 00-2.047-.45 1.463 1.463 0 00-.454 2.036z" fill="#FAE0B2"/><path d="M267.4 79.183c-.687-.305-.76-1.265-.117-1.672a.967.967 0 011.317.29c.511.8-.337 1.775-1.2 1.382z" fill="#F47458"/><path d="M273.265 77.162c-.102.8.468 1.542 1.272 1.658a1.5 1.5 0 001.668-1.265 1.495 1.495 0 00-1.273-1.658c-.819-.102-1.565.465-1.667 1.265z" fill="#FAE0B2"/><path d="M274.084 76.886a.946.946 0 01.702-.19c.848.117 1.126 1.193.454 1.702a.946.946 0 01-.702.19c-.849-.102-1.141-1.179-.454-1.702z" fill="#F47458"/><path d="M265.806 79.285a1.486 1.486 0 01-.205 2.08 1.505 1.505 0 01-2.091-.203 1.467 1.467 0 01.205-2.066 1.475 1.475 0 012.091.19z" fill="#FAE0B2"/><path d="M263.919 80.332c.088-.843 1.156-1.163 1.697-.509a.945.945 0 01-.132 1.338c-.658.539-1.638 0-1.565-.829z" fill="#F47458"/><path d="M279.598 80.26a1.467 1.467 0 00-.088 2.08c.556.596 1.492.64 2.092.087.6-.553.643-1.484.088-2.08a1.486 1.486 0 00-2.092-.087z" fill="#FAE0B2"/><path d="M279.657 82.165c-.351-.393-.337-.989.058-1.338.395-.35.995-.335 1.346.058.351.393.336.99-.059 1.338a.97.97 0 01-1.038.175c-.029-.03-.161-.087-.307-.233z" fill="#F47458"/><path d="M272.519 77.118a1.478 1.478 0 01-1.492 1.455c-.819-.015-1.477-.67-1.462-1.484a1.479 1.479 0 011.492-1.454c.819 0 1.477.669 1.462 1.483z" fill="#FAE0B2"/><path d="M270.121 77.38c.014-.683.731-1.134 1.345-.858a.96.96 0 01.571.887.96.96 0 01-.966.946c-.541-.015-.965-.451-.95-.975zM273.104 87.605l7.957.553.014-.277-8.278-.567 8-2.24-.073-.262-7.678 2.153 6.45-4.669-.161-.218-6.713 4.858 4.68-6.822-.234-.16-4.49 6.56 1.93-7.694-.277-.073-2.004 8.014-.834-8.218-.278.03.805 7.883-3.496-7.113-.248.117 3.641 7.418-5.952-5.76-.19.204 5.704 5.527-7.284-3.215-.117.248 16.293 7.243.117-.247-7.284-3.273z" fill="#F47458"/><path d="M271.965 86.485l-15.267 33.983 1.095.486 15.267-33.982-1.095-.487z" fill="#F47458"/><path d="M247.977 135.255s15.518-11.462 17.639-16.393c2.12-4.945-2.253-4.378-2.253-4.378s6.26-8.829 4.607-11.752c-1.667-2.924-5.118.814-5.118.814s2.91-11.956.38-12.61c-4.71-1.237-8.571 11.621-8.571 11.621s.351-5.338-2.603-4.625c-4.446 1.09-2.092 12.582-2.092 12.582s-1.418-2.037-3.846-.102c-4.388 3.476 1.857 24.843 1.857 24.843z" fill="#355389"/><path d="M245.447 110.702c2.443-1.934 4.505-.203 4.505-.203s-2.355-11.49 2.091-12.582c2.94-.712 2.604 4.626 2.604 4.626s3.861-12.858 8.57-11.622l-15.357 44.305c-.687-2.764-6.493-21.28-2.413-24.524z" fill="#13375B"/><path d="M247.992 134.862s10.765.247 16.337-1.338c1.126-.32 2.296-.96 2.837-1.426 3.277-2.749-.746-2.952-.746-2.952s9.112-4.873 8.995-7.549c-.117-2.676-3.671-2.749-3.671-2.749s5.002-5.789 3.057-8.131c-2.472-2.967-8.688 2.851-8.688 2.851s.702-2.153-1.638-2.705c-3.51-.83-7.108 11.519-7.108 11.519s.468-5.047-1.96-4.552c-4.285.901-7.415 17.032-7.415 17.032z" fill="#466EB6"/><path d="M247.334 135.735s-14.114-11.985-15.84-16.814c-1.725-4.829 2.414-4.029 2.414-4.029s-5.426-8.785-3.657-11.462c1.755-2.676 4.827 1.077 4.827 1.077s-2.033-11.55.409-12.03c4.549-.886 7.445 11.579 7.445 11.579s0-5.106 2.749-4.233c4.169 1.295 1.229 12.102 1.229 12.102s1.536-4.029 3.729-2.051c3.949 3.578-3.305 25.861-3.305 25.861z" fill="#355389"/><path d="M251.151 109.321c-2.545-1.527-3.817.509-3.817.509s2.516-8.683-1.653-9.992c-2.764-.858-2.749 4.232-2.749 4.232s-2.896-12.465-7.445-11.577l12.11 44.522c.819-2.589 6.596-25.89 3.554-27.694z" fill="#466EB6"/><path d="M245.915 134.018s-9.828.03-14.918-.087a39.587 39.587 0 01-2.735-.145c-2.15-.248.22-2.168.22-2.168s-4.432.51-5.178-.654c-.731-1.164.848-1.964.848-1.964s-3.071-1.541-2.837-2.56c.424-1.89 4.007-.509 4.007-.509s-.892-.756-.087-1.643c1.214-1.338 5.294 2.094 5.294 2.094s-1.711-3.287-.79-4.101c4.695-4.175 16.176 11.737 16.176 11.737z" fill="#13375B"/><path d="M234.727 151.443h25.785c3.29-2.981 5.309-7.156 5.235-11.665-.043-2.283-.511-4.262-1.491-6.211l-33.274.379a14.545 14.545 0 00-1.374 6.443c.073 4.276 2.018 8.203 5.119 11.054z" fill="#F47458"/><path d="M178.023 107.226l-1.828 44.217h1.506l4.944-44.74-4.622.523z" fill="#184655"/><path d="M90.255 28.843l.146-3.884-3.13-2.312c-.35-.262-.248-.815.176-.946l3.758-1.061 1.244-3.68a.536.536 0 01.95-.131l2.18 3.229 3.905.043c.438 0 .687.51.424.858l-2.413 3.055 1.17 3.709a.533.533 0 01-.702.655l-3.671-1.339-3.189 2.255a.536.536 0 01-.848-.451z" fill="#F7CC7F"/><path d="M32.835 38.428l3.086-.087 1.345-3.505 4.198.552.614-2.443.921.32-.804 3.2-4.3-.568-1.302 3.39-3.729.116-.03-.975z" fill="#F48C7F"/><path d="M196.685 72.377l3.174 8.93s2.808-5.803 4.578-12.48c2.779.99 4.578 2.095 6.786 4-2.574 6.211-7.415 16.364-11.232 16.931-2.969.436-6.011-14.109-6.011-14.109l2.705-3.272z" fill="#F7A491"/><path d="M192.385 71.475l-1.023-.03.044-1.236 1.023.03c.483.014.892-.524.922-1.208l.044-1.236c.029-.684-.351-1.251-.834-1.28l-1.316-.044.044-1.236 1.316.043c.965.03 1.726 1.179 1.667 2.546l-.044 1.236c-.044 1.353-.863 2.444-1.843 2.415z" fill="#FAE0B2"/><path d="M184.809 65.06l-.19 5.687a2.366 2.366 0 002.296 2.444l2.033.073a2.368 2.368 0 002.458-2.284l.219-6.414-6.801-.233-.015.727z" fill="#FAE0B2"/><path d="M195.194 67.213c-.366-.392-1.273-.814-1.726-.392-.454.407-.263 1.09-.527 1.425-.234.305-.497.829-.643 1.309-.044.13-.351 1.149-.439 1.44-.088.29 2.121 4.654 2.121 4.654l3.217-1.643c-.014 0-1.638-6.4-2.003-6.793z" fill="#F7A491"/><path d="M205.578 65.497s-2.282 6.021-2.867 7.927c-.585 1.905-1.755 4.654-1.755 4.654l6.333 4.073 4.461-9.411-6.172-7.243z" fill="#FAE0B2"/><path d="M229.827 151.444l-12.68-35.083-2.414.902 12.344 34.181h2.75z" fill="#3C8F7C"/><path d="M191.566 110.572h33.069c3.408 0 6.157 2.749 6.157 6.123 0 3.389-2.764 6.124-6.157 6.124h-33.069c-3.407 0-6.157-2.749-6.157-6.124 0-3.389 2.75-6.123 6.157-6.123zM249.952 151.444l-12.754-35.272-2.413.902 12.432 34.37h2.735z" fill="#3C8F7C"/><path d="M198.923 151.444l12.183-33.657-2.413-.902-12.724 34.559h2.954z" fill="#3C8F7C"/><path d="M217.585 111.59h4.783l12.49-34.196a3.3 3.3 0 013.072-2.152l14.962-.218c2.31-.03 4.46 3.258 3.188 7.461l-9.551 28.058-2.632 8.407-28.067.291 1.755-7.651z" fill="#50BFA5"/><path d="M212.379 111.91l24.351-.058 11.247-32.29c.776-2.211-.863-4.51-3.159-4.495l-16.234.16c-1.36.015-2.574.873-3.072 2.153l-13.133 34.53z" fill="#3C8F7C"/><path d="M201 110.572s13.733.858 18.311.858c4.753 0 17.638-1.804 17.638-1.804 3.203 0 7.152 3.331 7.152 6.284v1.571c0 2.952-2.588 5.338-5.791 5.338h-37.325c-3.203 0-5.792-2.4-5.792-5.338v-1.557c.015-2.952 2.604-5.352 5.807-5.352z" fill="#50BFA5"/><path d="M197.519 137.669c-.673 3.011-.936 8.611-.805 9.266.044.189-.16.96-.263 1.134-3.934 2.153-7.868 1.236-11.086.044 2.223-.757 5.163-1.746 5.602-2.037 1.155-.741.585-4.552.394-9.381 1.58 1.731 3.92.218 6.158.974z" fill="#F7A491"/><path d="M215.889 96.085l-.293 3.825s-26.911 3.724-27.35 8.626c-.439 4.901 2.472 34.791 2.472 34.791l6.596.422s3.408-16.174 3.086-21.788c-.292-5.091-1.433-7.869-1.433-7.869s28.476-.902 30.319-1.731c1.843-.829 3.612-3.578 1.769-10.88-1.842-7.301-2.808-9.178-2.808-9.178l-12.358 3.782z" fill="#466EB6"/><path d="M198.66 55.417c-.629-2.633-1.258-5.294.409-8.189 1.36-2.342 3.701-3.694 6.406-3.985 7.679-.83 6.041 5.716 16.761 7.141 3.335.437 6.435.858 9.214 2.386 5.032 2.734 5.236 10.589 3.584 14.268-7.869 17.63-28.184 2.648-30.656-.8-1.842-2.574-5.309-9.12-5.718-10.821z" fill="#13375B"/><path d="M204.027 70.893c.249-2.284 1.536-5.44 1.536-5.44.278-2.298 7.708-3.069 9.624-2.69 6.8 2.137 11.832 21.09 14.742 32.784l-14.187 2.24s-4.768-15.404-9.375-17.673c-3.203-1.6-2.691-5.847-2.34-9.221z" fill="#F7CC7F"/><path d="M208.781 56.595s.029.16.087.422c.264 1.28 1.083 5.105 1.755 6.284.82 1.41-1.857 7.796-5.352 7.243-1.039-.16.585-3.432.234-5.003-.205-.888-.805-3.68-1.288-5.92-.38-1.731-.672-3.142-.672-3.142l5.236.116z" fill="#F7A491"/><path d="M208.868 57.031a12.338 12.338 0 01-.087-.422l-5.236-.116s.307 1.411.672 3.142c.132.61.264 1.25.41 1.876.804-.102 1.653-.465 2.501-1.149a6.106 6.106 0 001.901-2.574c-.073-.306-.117-.568-.161-.757z" fill="#F47458"/><path d="M205.636 45.22s2.135.277 3.686 2.095c1.55 1.833 3.217 7.476-.629 10.546-3.847 3.069-7.649-.408-8.205-4.088-.571-3.694-.454-8.683 5.148-8.552z" fill="#F7A491"/><path d="M199.245 52.508c.453.814 1.228 1.265 1.725 1.004.498-.262.512-1.12.059-1.935-.453-.814-1.229-1.265-1.726-1.003-.482.247-.512 1.12-.058 1.934z" fill="#F7A491"/><path d="M204.978 45.134s3.305 5.367 5.66 5.614c2.355.247 2.676 3.098 2.676 3.098s-.848-6.574-3.173-7.84c-2.355-1.265-5.163-.872-5.163-.872z" fill="#13375B"/><path d="M209.863 52.028c-.19.96.19 1.833.863 1.949.673.13 1.36-.553 1.55-1.498.19-.96-.19-1.833-.863-1.95-.658-.13-1.36.553-1.55 1.499zM211.969 70.573c.76 7.025-.805 16.916-.805 16.916L196.656 92.2s-2.472-.974-3.276-.669c-.79.306-2.53.8-2.267 1.251.278.451 1.74-.378 2.135-.233.38.16-1.024 1.44-1.609 1.804-.585.364-4.958-.378-5.616-.305-.351.029 0 .29.541.538-.629-.131-1.272-.204-1.506-.015-.497.407 2.559 1.266 2.559 1.266s-4.051-.757-2.208.058c0 0 4.256 2.123 6.669.945 2.399-1.178 3.071-1.309 3.876-1.643.234-.102 18.238-.946 19.525-2.11 3.057-2.748 4.358-14.719 4.563-21.628-2.852-.843-5.016-1.134-8.073-.887z" fill="#F7A491"/><path d="M210.652 68.319c.103-2.037.585-4.655 2.765-5.367 1.36-.451 2.925-.204 4.007.64 1.302.989 2.823 2.996 2.998 4.64.381 3.563.278 6.865-.351 10.414-2.486-1.251-5.967-.466-8.804-.728 0-.014-.761-6.909-.615-9.6z" fill="#FAE0B2"/><path d="M184.663 132.593a43.676 43.676 0 00-4.154 5.847c-.087.16-.117 1.135-.204 1.309-3.584 2.342-7.372 1.688-10.472.728 2.047-.888 4.899-1.906 5.163-2.328.424-.683 2.369-3.141 4.387-7.563 1.609 1.571 3.116 1.396 5.28 2.007z" fill="#F7A491"/><path d="M180.48 138.571c.307 1.426.19 4.306-.102 4.364-.337.073-12.344 1.833-13.88.305-.921-.916.819-1.629 3.335-2.778 3.115.975 10.53-.931 10.647-1.891zM177.921 132.317l4.87 2.865s13.324-19.897 14.362-24.479c.951-4.175 4.666-6.065 4.666-6.065l13.763-4.713s-22.626-.887-25.61.887c-3.788 2.269-12.051 31.505-12.051 31.505z" fill="#355389"/><path d="M34.356 151.444l12.534-35.345-2.413-.916-12.856 36.261h2.735z" fill="#3C8F7C"/><path d="M105.363 107.226l2.179 44.217h-1.813l-5.924-44.74 5.558.523z" fill="#184655"/><path d="M48.001 151.443l12.535-35.155-2.414-.916-12.856 36.071h2.735zM96.061 151.473l-13.207-35.461-2.413.887 12.9 34.545 2.72.029z" fill="#3C8F7C"/><path d="M88.543 109.583H57.055c-3.408 0-6.158 2.749-6.158 6.123 0 3.389 2.764 6.123 6.158 6.123h31.488c3.408 0 6.158-2.749 6.158-6.123 0-3.389-2.75-6.123-6.157-6.123z" fill="#3C8F7C"/><path d="M86.189 151.444l-13.207-35.548-2.413.887 12.885 34.661h2.735z" fill="#3C8F7C"/><path d="M64.104 110.601h-4.782l-12.49-34.196a3.298 3.298 0 00-3.072-2.153l-14.962-.218c-2.31-.029-4.46 3.258-3.188 7.462l9.55 28.057 2.633 8.422 28.066.291-1.755-7.665z" fill="#50BFA5"/><path d="M69.311 110.921l-24.352-.058-11.247-32.29c-.775-2.211.863-4.51 3.16-4.495l16.234.16c1.36.015 2.574.873 3.071 2.153l13.134 34.53z" fill="#3C8F7C"/><path d="M86.95 99.125c-.161-.291-.527-2.037-1.127-2.037s-2.618 2.415-2.618 2.415l3.745-.378z" fill="#13375B"/><path d="M51.395 81.147c8.731 3.564 11.54-4.233 11.32-4.029.16-.174 1.477-.742 2.325-1.164 3.496-1.701 3.393-7.723 3.32-11.708 5.017-3.04 6.275-8.858 2.838-12.407 1.053-3.957 1.287-6.444-2.267-8.451-2.691-4.654-10.223-3.084-13.88.582-1.857 1.847-2.925 4.567-2.896 7.272-4.3 1.775-6.552 6.487-5.572 11.244-5.821 4.756-4.08 15.01 4.812 18.661z" fill="#355389"/><path d="M66.517 65.162c3.13 6.036 9.785 12.872 9.785 12.872l14.918-4.887s.688-1.454 1.492-1.629c.804-.16 3.013-.8 3.042-.305.015.494-1.404.582-1.638.902-.22.32 1.419.145 2.091.116.659-.03 3.203-2.298 3.76-2.589.306-.16.16.247-.147.713.439-.437.907-.83 1.199-.8.615.072-1.39 2.37-1.39 2.37s1.595-1.948 1.961-1.629c.087.088.102.102-.147.51 0 0-2.281 3.956-4.84 4.276-2.56.32-3.16.553-3.993.713-.234.043-15.504 9.352-17.112 8.916-2.53-.67-10.999-9.847-14.845-15.287 1.799-2.153 3.276-2.851 5.864-4.262z" fill="#F79C8D"/><path d="M72.997 73.584s-2.633 5.148-4.549 5.847l-8.746-10.604s-.044-5.207 2.603-5.207c2.648.015 2.984.204 3.554.596.57.379 7.138 9.368 7.138 9.368z" fill="#B75742"/><path d="M68.126 68.216a40.301 40.301 0 00-2.135-3.476c-1.097-1.934-3.92-2.924-3.92-2.924s-.95.015-2.033.073c-.073.175-.131.306-.204.364-.41.305-2.75-.087-4.256.93-4.593 3.928-3.745 21.542-3.277 29.73.044.844-.029 1.6 0 2.212l12.637.058s0-.204.03-.567c.19-2.662 1.17-14.036 3.933-17.265 2.194-2.56.79-6.255-.775-9.135z" fill="#F47458"/><path d="M94.262 146.876c-.058-.291-1.39-4.931-1.462-7.432-.117-3.637.365-39.01-3.481-40.392-1.01-.364-5.865-.873-7.869-.815-3.466 3.855-1.916 6.633-2.588 12 2.427-.945 4.285-1.047 4.241-.145-.307 6.661 5.44 29.075 5.25 29.628-.877 2.473-2.837 3.636-2.837 3.636s9.214 8.713 9.785 7.709c.526-1.003-.439-.872-1.039-4.189z" fill="#F79C8D"/><path d="M107.82 145.727c-.146-.276-2.91-4.494-3.758-6.996-1.244-3.622-11.613-38.719-16-39.577-1.098-.218-10.283-1.615-12.257-.858-2.238 5.105-1.082 6.981-.088 12.625 3.686-.655 9.39-1.964 9.55-1.018 1.273 7.869 14.48 30.006 14.465 30.646-.102 2.807-1.682 4.655-1.682 4.655s11.862 5.6 12.096 4.392c.219-1.192-.688-.727-2.326-3.869z" fill="#F7A491"/><path d="M97.816 145.524l12.973 5.163c.497.146.761-.218.688-.538-.161-.655-2.253-2.924-3.657-4.451-3.1-.858-7.898-4.247-8.102-5.163-.79 1.352-2.136 4.814-1.902 4.989z" fill="#F47458"/><path d="M61.179 54.718s-.848 6.037-1.433 7.506c-.585 1.469 3.247 4.61 6.45 5.556 3.203.945-.98-3.244-.849-4.815.132-1.57.717-8.988.717-8.988l-4.885.741z" fill="#F7A491"/><path d="M65.903 56.1c.088-1.222.161-2.123.161-2.123l-4.885.741s-.117.713-.263 1.717c1.974 1.134 3.759.77 4.987-.335z" fill="#F47458"/><path d="M62.715 43.679s-1.93.436-3.115 2.24c-1.185 1.803-2.004 7.141 1.916 9.629 3.92 2.487 6.961-1.033 7.005-4.466.044-3.418-.687-8-5.806-7.403z" fill="#F7A491"/><path d="M69.413 50.02c-.336.83-.994 1.339-1.477 1.15-.483-.19-.6-1.019-.263-1.848.336-.829.994-1.338 1.477-1.149.468.19.6 1.018.263 1.847zM59.526 50.704c.278.888.03 1.775-.585 1.964-.6.189-1.33-.378-1.608-1.265-.278-.888-.03-1.775.585-1.964.614-.204 1.33.364 1.608 1.265z" fill="#F7A491"/><path d="M74.386 95.765c-2.164-.204-9.258-.19-9.258-.19l-.16-.974L52.271 92.9s-2.237 5.324-2.325 8.669c-.147 5.847 5.265 10.778 9.887 10.487 2.75-.174 18.355-.509 21.397-1.629.629-4.771 1.346-9.934 4.578-13.352-5.163-.684-8.483-1.033-11.423-1.31z" fill="#13375B"/><path d="M95.973 150.018c-.438-1.091-1.17-2.065-1.696-3.171-2.589-1.731-5.997-6.254-5.938-7.141-1.097.96-3.291 3.636-3.115 3.869l8.117 7.883c.058.044 3.642.262 4.373-.189.35-.233-.995-.946-1.74-1.251z" fill="#F47458"/><path d="M70.364 77.394l-6.889 7.316s-.468-4.276-.804-10.88c-2.808.379-4.71 1.077-7.152 2.415 1.17 6.327 2.969 15.505 6.435 16.785 2.706.99 9.17-10.763 9.17-10.763l-.76-4.873z" fill="#F7A491"/><path d="M62.759 66.776c-.41-1.992-.907-4-3.072-4.625-1.345-.393-2.852-.015-3.92.858-1.272 1.047-1.637 2.706-1.623 4.291.015 3.593.264 7.316.922 10.85 2.442-1.352 5.981-1.192 8.79-1.57.248-3.2-.556-7.2-1.097-9.804z" fill="#B75742"/><path d="M79.988 110.252s-15.138.218-19.394.218c-4.417 0-16.38-1.833-16.38-1.833-2.97 0-6.64 3.389-6.64 6.4v1.6c0 3.011 2.413 5.44 5.367 5.44h34.633c2.97 0 5.368-2.429 5.368-5.44v-1.6c.015-2.996.015-4.785-2.954-4.785z" fill="#50BFA5"/><path d="M81.29 73.322v5.454a2.278 2.278 0 01-2.282 2.27h-1.96a2.278 2.278 0 01-2.282-2.27v-6.152h6.523v.698z" fill="#FAE0B2"/><path d="M73.816 79.213h.98V78.02h-.98c-.468 0-.849-.538-.849-1.193v-1.193c0-.654.38-1.192.849-1.192h1.257v-1.193h-1.257c-.936 0-1.682 1.076-1.682 2.385v1.193c0 1.324.746 2.386 1.682 2.386z" fill="#FAE0B2"/><path d="M71.665 74.136c.425-.29 1.36-.509 1.697-.029.351.48.044 1.077.22 1.44.16.32.292.873.35 1.353.015.13.088 1.15.117 1.44.03.29-2.91 3.956-2.91 3.956l-2.31-2.88c0-.014 2.412-4.989 2.837-5.28z" fill="#F7A491"/><path d="M194.126 108.114H86.204c0-5.702 4.636-10.313 10.37-10.313h87.182c5.734 0 10.37 4.611 10.37 10.313z" fill="#184655"/><path d="M158.659 80.987a.929.929 0 01.936-.872h6.069a.94.94 0 01.936.873l.015.16h-7.971l.015-.16z" fill="#FAE0B2"/><path d="M166.63 81.162l.98 16.64h-9.946l.995-16.64h7.971zM162.169 77.395a.29.29 0 01.292-.32h.366c.175 0 .307.16.292.32v.014h-.936l-.014-.014z" fill="#F7CC7F"/><path d="M158.176 92.798l.673-.407c-2.311-3.738-5.163-9.483-4.315-10.603 1.141-1.484 4.198.669 4.227.698l.468-.626c-.146-.116-3.686-2.647-5.309-.538-1.506 1.935 3.291 9.905 4.256 11.476zM163.105 77.41l-.22 1.774h-.497l-.219-1.775h.936z" fill="#F7CC7F"/><path d="M162.637 78.238c1.594 0 2.881.83 2.911 1.862h-5.836c.044-1.018 1.345-1.862 2.925-1.862zM166.82 84.362l.248 4.334 2.838-6.312h-1.507l-1.579 1.978zM49.947 33.018a.258.258 0 01-.22-.117.277.277 0 01.044-.392l4.08-3.157a.28.28 0 01.395.044.277.277 0 01-.043.393l-4.081 3.156a.232.232 0 01-.175.073z" fill="#F7CC7F"/><path d="M56.397 24.785s.146-1.513 1.652-2.357c1.346-.741 2.896-.13 3.642 1.179.848 1.512.6 4.014-1.784 7.389-4.154.261-6.421-.83-7.27-2.357-.73-1.309-.438-2.952.893-3.694 1.492-.844 2.867-.16 2.867-.16z" fill="#96D9C9"/><path d="M59.424 25.701a.258.258 0 01-.22-.116.277.277 0 01.044-.393l7.24-5.6a.28.28 0 01.395.044.277.277 0 01-.044.392l-7.24 5.6a.304.304 0 01-.175.073z" fill="#F7CC7F"/><path d="M66.05 20.407h-.015c-.132-.015-.234-.131-.22-.247l.088-1.164c.015-.131.132-.233.249-.218.131.014.234.13.22.247l-.089 1.164c-.014.116-.117.218-.234.218z" fill="#F7CC7F"/><path d="M67.439 20.683h-.03l-1.36-.16a.232.232 0 01-.205-.262.233.233 0 01.264-.203l1.36.16c.131.014.22.13.205.262a.236.236 0 01-.234.203z" fill="#F7CC7F"/><path d="M66.43 21.628c-.03 0-.059 0-.088-.014l-1.419-.597.03-1.425c0-.13.116-.233.248-.233s.234.117.234.248l-.03 1.105 1.112.465c.117.059.176.19.132.306a.256.256 0 01-.22.145zM65.128 22.298c-.03 0-.044 0-.073-.015l-1.258-.364.117-1.41c.014-.131.117-.233.248-.219.132.015.234.117.22.248l-.073 1.032.892.262c.132.044.205.175.16.291a.25.25 0 01-.233.175zM50.795 29.934l-1.463 3.563 3.627-1.09-1.55-.873-.614-1.6z" fill="#F7CC7F"/><path d="M239.568 30.545l-3.408.233-.687-2.051-3.204.101-1.272-2.763 1.068-.48.936 2.065 3.305-.116.673 2.022 2.501-.175.088 1.164z" fill="#F48C7F"/><path d="M227.077 26.545l-1.243-.902 1.463-2.007 2.252-.45-2.472 3.359z" fill="#F47458"/><path d="M229.549 23.185s-2.004.03-2.238.451c-.38.684 1.901-.073 2.238-.45z" fill="#F48C7F"/><path d="M227.596 26.517l-1.891-1.37-2.714 3.703 1.892 1.37 2.713-3.703z" fill="#9BC1F9"/><path d="M221.651 34.225l-1.477-1.062a.651.651 0 01-.146-.916l3.071-4.203 2.545 1.847-3.071 4.203a.658.658 0 01-.922.131z" fill="#B75742"/><path d="M96.69 106.877l2.106 44.566h-1.799l-5.85-45.075 5.543.509zM185.248 106.877l-1.755 44.566h1.931l4.446-45.075-4.622.509z" fill="#184655"/><path d="M8.673 115.183a.86.86 0 00.76.96c.484.058.922-.291.966-.757a.86.86 0 00-.76-.96.879.879 0 00-.966.757z" fill="#FAE0B2"/><path d="M9.975 115.764c-.322.495-1.097.219-1.038-.378.029-.305.307-.523.629-.494.424.058.643.538.41.872z" fill="#F47458"/><path d="M4.285 116.506a.869.869 0 01-.102 1.222.88.88 0 01-1.228-.102.868.868 0 01.102-1.221.854.854 0 011.228.101z" fill="#FAE0B2"/><path d="M4.11 117.612a.548.548 0 01-.79-.073.567.567 0 01-.044-.669c.03-.044.073-.087.103-.116a.534.534 0 01.41-.131.561.561 0 01.321.989z" fill="#F47458"/><path d="M8.235 115.168a.878.878 0 01-1.756 0 .878.878 0 011.756 0z" fill="#FAE0B2"/><path d="M7.386 115.91a.57.57 0 01-.482-.873c.307-.465 1.038-.247 1.038.306a.577.577 0 01-.556.567z" fill="#F47458"/><path d="M12.125 116.666a.882.882 0 01-1.229.117.87.87 0 01-.117-1.222.88.88 0 011.229-.116.868.868 0 01.117 1.221z" fill="#FAE0B2"/><path d="M11.789 116.608c-.205.233-.556.276-.79.073-.234-.204-.278-.553-.073-.786.204-.232.555-.276.79-.072a.553.553 0 01.073.785z" fill="#F47458"/><path d="M5.5 126.702a.855.855 0 00-.395-1.163.865.865 0 00-1.17.392.856.856 0 00.394 1.164.86.86 0 001.17-.393z" fill="#FAE0B2"/><path d="M5.295 126.484a.575.575 0 01-.732.19.556.556 0 01-.219-.815.574.574 0 01.731-.189c.307.145.41.524.22.814z" fill="#F47458"/><path d="M2.574 123.764a.874.874 0 00.454-1.149.883.883 0 00-1.156-.451.874.874 0 00-.453 1.149c.19.436.717.64 1.155.451z" fill="#FAE0B2"/><path d="M2.867 123.211a.57.57 0 01-.995-.087.578.578 0 01.293-.742c.526-.204 1.009.364.702.829z" fill="#F47458"/><path d="M2.238 119.619a.875.875 0 001.082-.582.87.87 0 00-.585-1.077.876.876 0 00-1.082.582.847.847 0 00.585 1.077z" fill="#FAE0B2"/><path d="M2.15 119.124a.537.537 0 01-.044-.422c.147-.48.805-.538 1.039-.101.073.13.088.29.044.421-.146.48-.805.553-1.039.102z" fill="#F47458"/><path d="M2.78 124.157a.872.872 0 011.199.32.861.861 0 01-.322 1.192.872.872 0 01-1.2-.319.86.86 0 01.322-1.193z" fill="#FAE0B2"/><path d="M3.203 125.335a.568.568 0 01-.146-1.033c.263-.16.614-.058.775.204.264.436-.146.96-.629.829z" fill="#F47458"/><path d="M4.637 116.245a.875.875 0 001.214.247c.41-.262.511-.8.248-1.207a.875.875 0 00-1.462.96z" fill="#FAE0B2"/><path d="M5.763 116.39a.57.57 0 01-.79-.16.57.57 0 01.95-.625c.118.189.132.436 0 .611a.504.504 0 01-.16.174z" fill="#F47458"/><path d="M2.136 120.055c.482.088.79.539.716 1.004a.885.885 0 01-1.009.713.88.88 0 01-.717-1.004.859.859 0 011.01-.713z" fill="#FAE0B2"/><path d="M2.063 121.466a.559.559 0 01-.38-.858.554.554 0 01.57-.247.583.583 0 01.468.654.564.564 0 01-.658.451zM8.337 120.695l1.068-4.567-.161-.044-1.112 4.757-.57-4.844-.161.015.541 4.654-2.12-4.16-.147.073 2.223 4.349-3.569-3.346-.117.117 3.423 3.214-4.33-1.832-.058.145 4.505 1.92-4.9-.291-.014.16 4.694.276-4.504 1.368.044.16 4.694-1.426-3.934 2.909.103.131 3.773-2.792-2.574 3.927.131.087 5.778-8.771-.132-.087-2.574 3.898z" fill="#F47458"/><path d="M7.95 120.662l-.385.585 18.488 12.039.385-.584-18.488-12.04z" fill="#F47458"/><path d="M17.58 92.943a1.462 1.462 0 00.337 2.051 1.48 1.48 0 002.062-.334 1.462 1.462 0 00-.337-2.051 1.478 1.478 0 00-2.062.334z" fill="#FAE0B2"/><path d="M19.028 94.863c-.892.466-1.813-.582-1.228-1.396a.961.961 0 011.33-.218c.586.407.512 1.294-.102 1.614z" fill="#F47458"/><path d="M10.004 91.314c.161.8-.366 1.571-1.17 1.731a1.48 1.48 0 01-1.74-1.163c-.161-.8.365-1.571 1.17-1.731a1.48 1.48 0 011.74 1.163z" fill="#FAE0B2"/><path d="M8.82 92.813a.96.96 0 01-1.127-.757.954.954 0 01.498-1.032.933.933 0 01.263-.087.955.955 0 01.716.145c.702.48.483 1.57-.35 1.73z" fill="#F47458"/><path d="M16.937 92.55a1.476 1.476 0 11-.585-2.007c.731.393.98 1.295.585 2.008z" fill="#FAE0B2"/><path d="M15.08 92.944a.946.946 0 01.014-1.673c.848-.451 1.74.48 1.287 1.294-.263.466-.848.64-1.302.379z" fill="#F47458"/><path d="M21.47 97.933a1.489 1.489 0 01-1.915-.844 1.475 1.475 0 01.848-1.906c.76-.29 1.623.088 1.916.844a1.475 1.475 0 01-.848 1.906z" fill="#FAE0B2"/><path d="M21.017 97.598a.97.97 0 01-1.243-.538.959.959 0 01.541-1.237.969.969 0 011.243.539.959.959 0 01-.54 1.236z" fill="#F47458"/><path d="M3.393 107.415a1.468 1.468 0 00.38-2.05 1.488 1.488 0 00-2.062-.379 1.469 1.469 0 00-.38 2.051 1.5 1.5 0 002.062.378z" fill="#FAE0B2"/><path d="M3.262 106.906a.965.965 0 01-1.229-.305.95.95 0 01.351-1.382.965.965 0 011.229.305.953.953 0 01-.351 1.382z" fill="#F47458"/><path d="M1.477 100.652a1.487 1.487 0 001.624-1.323 1.484 1.484 0 00-2.954-.291 1.475 1.475 0 001.33 1.614z" fill="#FAE0B2"/><path d="M2.355 100.1c-.673.349-1.477-.175-1.404-.931a.974.974 0 011.053-.858c.95.087 1.2 1.352.351 1.789z" fill="#F47458"/><path d="M4.373 94.252c.57.582 1.507.597 2.092.03.585-.568.6-1.499.03-2.08a1.484 1.484 0 00-2.092-.03 1.465 1.465 0 00-.03 2.08z" fill="#FAE0B2"/><path d="M4.666 93.453c0-.248.102-.495.292-.67.615-.596 1.639-.16 1.624.699a.912.912 0 01-.293.669c-.614.582-1.638.145-1.623-.698z" fill="#F47458"/><path d="M1.448 101.394a1.47 1.47 0 11.059 2.938A1.47 1.47 0 010 102.892a1.478 1.478 0 011.448-1.498z" fill="#FAE0B2"/><path d="M1.112 103.517c-.614-.581-.205-1.629.643-1.643a.959.959 0 01.98.931c.015.858-1.009 1.294-1.623.712z" fill="#F47458"/><path d="M10.735 91.212a1.466 1.466 0 001.595 1.353 1.463 1.463 0 001.36-1.585 1.466 1.466 0 00-1.594-1.353c-.82.058-1.42.77-1.36 1.585z" fill="#FAE0B2"/><path d="M12.271 92.347a.941.941 0 01-1.024-.873.94.94 0 01.878-1.018.941.941 0 011.024.873.956.956 0 01-.512.916c-.03 0-.147.087-.366.102z" fill="#F47458"/><path d="M3.876 94.805c.644.51.746 1.44.234 2.066a1.477 1.477 0 01-2.077.232 1.458 1.458 0 01-.234-2.065 1.477 1.477 0 012.077-.233z" fill="#FAE0B2"/><path d="M2.604 96.856a.952.952 0 01.146-1.586.99.99 0 011.053.102c.41.335.483.93.146 1.338a.972.972 0 01-1.345.146zM12.534 100.827l5.339-5.876-.205-.19-5.572 6.124 3.159-7.636-.263-.102-3.028 7.331.293-7.927-.278-.015-.307 8.262-2.516-7.87-.263.088 2.413 7.549-4.9-6.254-.219.174 5.104 6.516-7.02-4.421-.146.232 6.728 4.248-7.781-1.659-.059.277 8.117 1.731-8.234 1.105.044.276 7.898-1.061-7.035 3.694.132.247 15.795-8.276-.131-.247-7.065 3.68z" fill="#F47458"/><path d="M11.994 100.458l-1.06.556 17.46 32.922 1.06-.556-17.46-32.922z" fill="#F47458"/><path d="M26.838 136.942s13.938-10.298 15.854-14.734c1.916-4.436-2.033-3.942-2.033-3.942s5.631-7.941 4.14-10.559c-1.492-2.618-4.608.727-4.608.727s2.618-10.734.337-11.33c-4.227-1.106-7.708 10.443-7.708 10.443s.307-4.8-2.34-4.146c-3.993.975-1.887 11.302-1.887 11.302s-1.243-1.833-3.437-.087c-3.934 3.127 1.682 22.326 1.682 22.326z" fill="#355389"/><path d="M24.571 114.878c2.194-1.746 4.051-.175 4.051-.175s-2.106-10.327 1.887-11.302c2.647-.64 2.413 3.899 2.413 3.899s3.394-11.302 7.635-10.197l-13.807 39.81c-.628-2.487-5.85-19.112-2.179-22.035z" fill="#13375B"/><path d="M26.853 136.593s9.506.189 14.596-1.178c1.126-.306 2.106-.858 2.647-1.309 2.955-2.458-.672-2.662-.672-2.662s8.19-4.378 8.087-6.778c-.102-2.4-3.305-2.458-3.305-2.458s4.49-5.207 2.75-7.302c-2.223-2.676-7.796 2.56-7.796 2.56s.63-1.934-1.462-2.429c-3.16-.756-6.377 10.356-6.377 10.356s.41-4.538-1.755-4.087c-3.89.785-6.713 15.287-6.713 15.287z" fill="#13375B"/><path d="M26.107 137.481s-12.68-10.763-14.23-15.112c-1.551-4.32 2.164-3.607 2.164-3.607s-4.87-7.898-3.291-10.298c1.58-2.4 4.33.974 4.33.974s-1.829-10.385.38-10.821c4.095-.8 6.683 10.399 6.683 10.399s0-4.581 2.472-3.81c3.744 1.163 1.097 10.865 1.097 10.865s1.375-3.622 3.364-1.833c3.554 3.214-2.97 23.243-2.97 23.243z" fill="#355389"/><path d="M29.69 113.626c-2.296-1.367-3.437.451-3.437.451s2.253-7.81-1.477-8.974c-2.486-.771-2.72 3.185-2.72 3.185s-2.516-10.472-6.611-9.672l10.91 39.897c.746-2.327 6.07-23.258 3.335-24.887z" fill="#466EB6"/><path d="M24.98 135.837s-8.35.131-13.426-.087c-2.047-.088-3.48-.146-3.744-.408-1.111-1.12 1.74-2.007 1.74-2.007s-4.577.495-5.25-.553c-.658-1.047 1.112-1.469 1.112-1.469s-4.3-1.236-4.096-2.152c.38-1.702 5.149-.597 5.149-.597s-1.01-1.309-.278-2.109c1.082-1.192 4.782 1.586 4.782 1.586s-1.272-1.935-.54-2.764c2.88-3.258 14.552 10.56 14.552 10.56z" fill="#13375B"/><path d="M14.933 151.443h23.181c2.955-2.69 4.754-6.385 4.68-10.428-.029-2.051-.453-3.84-1.345-5.586l-29.895.335a13.124 13.124 0 00-1.243 5.789c.088 3.84 1.828 7.33 4.622 9.89z" fill="#F47458"/></g><defs><clipPath id="clip0"><path fill="#fff" d="M0 0h284v145H0z"/></clipPath></defs></svg>