<svg xmlns="http://www.w3.org/2000/svg" viewBox="0 0 745.28 220.09" fill="#FFFFFF"><path d="M179.44 144.66c0-13.27-3.16-24.28-9.5-32.77-6.58-8.73-17.93-16.99-33.95-24.19-1.92-.8-4.72-2-8.32-3.77-16.25-6.9-23.27-13.48-23.27-21.27 0-4.66 1.8-8.76 5.55-11.59 3.27-2.74 7.55-3.78 12.54-3.78 7.2 0 14.66 1.8 22.74 6.2 6.11 3.16 12.77 7.93 20.15 13.69L190 23.51c-9.29-7.2-19.71-13.07-30.62-16.84C146.99 2.21 133.04 0 118.05 0c-25.52 0-46.4 6.99-62.06 20.53-15.7 13.63-23.07 30.53-23.07 52.04 0 13.13 3.77 24.31 11.41 33.45 7.91 9.65 21.03 18.17 38.97 25.93 1.53.35 3.54 1.24 5.84 2.3 9.71 4.01 21.03 9.56 21.03 18.5 0 4.78-2.51 8.79-6.87 11.36-3.54 2.12-8.26 3.36-13.92 3.36-10.83 0-21.95-3.13-32.65-9.5-8.61-5.04-16.93-11.86-24.75-20.71L0 184.72c13.04 10.97 27.37 19.56 41.83 25.4 15.78 6.67 32.1 9.97 48.56 9.97 25.84 0 47.4-7.43 64.36-21.89 16.46-14.46 24.69-31.98 24.69-53.54z"/><path class="st1" d="M270.89 144.66s35.25-74.22 37.02-80.12l6.28 80.12h-43.3zm7.64-139.79L169.42 214.72h72.62l10.38-25.66 1.39-3.81h62.89l.35 5.72.92 23.75h66.46L357.05 4.87h-78.52z"/><path d="M734.51 144.66c0-13.27-3.27-24.28-9.44-32.89-6.52-8.61-17.96-16.87-34.34-24.07-1.8-.8-4.42-2.18-7.96-3.77-16.22-6.9-23.54-13.48-23.54-21.27 0-4.66 1.98-8.76 5.6-11.59 3.3-2.74 7.64-3.78 12.68-3.78 7.02 0 14.87 1.8 22.98 6.2 6.05 3.16 12.66 7.93 19.82 13.69l24.96-43.77c-9.53-7.08-19.76-12.95-30.85-16.73C702.04 2.21 688.11 0 673.19 0c-25.84 0-46.58 6.99-62.12 20.53-15.69 13.63-23.16 30.53-23.16 52.04 0 13.13 3.66 24.31 11.56 33.45 8.05 9.65 20.97 18.17 38.79 25.93 1.44.35 3.27 1.24 5.75 2.3 9.85 4.01 21 9.56 21 18.5 0 4.78-2.54 8.79-6.7 11.36-3.72 2.12-8.23 3.36-13.78 3.36-10.92 0-22.01-3.13-32.98-9.5-8.55-5.04-16.7-11.86-24.33-20.71l-32.3 47.46c13.33 10.97 27.29 19.56 41.95 25.4 15.78 6.67 32.24 9.97 48.64 9.97 25.72 0 47.43-7.43 64.1-21.89 16.7-14.46 24.9-31.98 24.9-53.54z"/><path class="st1" d="M524.22 4.87l-45.28 63.8-42.15 59.41-.18 1.68-15.78 84.95h68.91l16.02-86.11.18-1.27.85-1.24L599.23 4.87h-75.01zM470.27 46.9L453.6 4.87h-68.26l42.62 101.62 42.31-59.59z"/></svg>